<svg width="216" height="216" viewBox="0 0 216 216" fill="none" xmlns="http://www.w3.org/2000/svg">
<path d="M132 186C132 202.569 118.569 216 102 216C85.4315 216 72 202.569 72 186C72 169.431 85.4315 156 102 156C118.569 156 132 169.431 132 186Z" fill="#B48201"/>
<path d="M171 121.5C171 136.688 158.688 149 143.5 149C128.312 149 116 136.688 116 121.5C116 106.312 128.312 94 143.5 94C158.688 94 171 106.312 171 121.5Z" fill="#5D8900"/>
<path d="M216 40C216 62.0914 198.091 80 176 80C153.909 80 136 62.0914 136 40C136 17.9086 153.909 0 176 0C198.091 0 216 17.9086 216 40Z" fill="#0A7C00"/>
<path d="M81 123.5C81 135.926 70.9264 146 58.5 146C46.0736 146 36 135.926 36 123.5C36 111.074 46.0736 101 58.5 101C70.9264 101 81 111.074 81 123.5Z" fill="#DB5104"/>
<path d="M60 56C60 72.5685 46.5685 86 30 86C13.4315 86 0 72.5685 0 56C0 39.4315 13.4315 26 30 26C46.5685 26 60 39.4315 60 56Z" fill="#950000"/>
</svg>
