<svg width="755" height="218" viewBox="0 0 755 218" fill="none" xmlns="http://www.w3.org/2000/svg">
<path d="M132 186C132 202.569 118.569 216 102 216C85.4315 216 72 202.569 72 186C72 169.431 85.4315 156 102 156C118.569 156 132 169.431 132 186Z" fill="#B48201"/>
<path d="M171 121.5C171 136.688 158.688 149 143.5 149C128.312 149 116 136.688 116 121.5C116 106.312 128.312 94 143.5 94C158.688 94 171 106.312 171 121.5Z" fill="#5D8900"/>
<path d="M216 40C216 62.0914 198.091 80 176 80C153.909 80 136 62.0914 136 40C136 17.9086 153.909 0 176 0C198.091 0 216 17.9086 216 40Z" fill="#0A7C00"/>
<path d="M81 123.5C81 135.926 70.9264 146 58.5 146C46.0736 146 36 135.926 36 123.5C36 111.074 46.0736 101 58.5 101C70.9264 101 81 111.074 81 123.5Z" fill="#DB5104"/>
<path d="M60 56C60 72.5685 46.5685 86 30 86C13.4315 86 0 72.5685 0 56C0 39.4315 13.4315 26 30 26C46.5685 26 60 39.4315 60 56Z" fill="#950000"/>
<path d="M299.121 131L270 54.5742H291.807L306.572 98.1191C308.213 103.633 309.238 108.852 309.648 113.773H310.059C310.286 109.398 311.312 104.18 313.135 98.1191L327.832 54.5742H349.639L320.518 131H299.121ZM382.856 92.6504C382.856 100.215 384.086 105.935 386.547 109.809C389.054 113.682 393.11 115.619 398.715 115.619C404.275 115.619 408.263 113.705 410.678 109.877C413.139 106.003 414.37 100.261 414.37 92.6504C414.37 85.0853 413.139 79.4115 410.678 75.6289C408.217 71.8464 404.184 69.9551 398.579 69.9551C393.019 69.9551 389.008 71.8464 386.547 75.6289C384.086 79.3659 382.856 85.0397 382.856 92.6504ZM435.698 92.6504C435.698 105.092 432.416 114.822 425.854 121.84C419.291 128.858 410.154 132.367 398.442 132.367C391.105 132.367 384.633 130.772 379.028 127.582C373.422 124.346 369.116 119.721 366.108 113.705C363.1 107.689 361.596 100.671 361.596 92.6504C361.596 80.1634 364.855 70.4564 371.371 63.5293C377.888 56.6022 387.049 53.1387 398.852 53.1387C406.189 53.1387 412.661 54.7337 418.266 57.9238C423.871 61.1139 428.178 65.694 431.186 71.6641C434.194 77.6341 435.698 84.6296 435.698 92.6504ZM457.636 34.8184C457.636 28.028 461.418 24.6328 468.983 24.6328C476.548 24.6328 480.331 28.028 480.331 34.8184C480.331 38.054 479.374 40.5833 477.46 42.4062C475.591 44.1836 472.766 45.0723 468.983 45.0723C461.418 45.0723 457.636 41.6543 457.636 34.8184ZM479.374 131H458.524V54.5742H479.374V131ZM539.114 115.756C542.76 115.756 547.135 114.958 552.239 113.363V128.881C547.044 131.205 540.664 132.367 533.099 132.367C524.759 132.367 518.675 130.271 514.847 126.078C511.064 121.84 509.173 115.505 509.173 107.074V70.2285H499.193V61.4102L510.677 54.4375L516.693 38.3047H530.023V54.5742H551.419V70.2285H530.023V107.074C530.023 110.036 530.843 112.224 532.484 113.637C534.17 115.049 536.38 115.756 539.114 115.756ZM621.892 131L617.859 120.609H617.312C613.803 125.03 610.18 128.106 606.443 129.838C602.752 131.524 597.921 132.367 591.951 132.367C584.614 132.367 578.826 130.271 574.587 126.078C570.395 121.885 568.298 115.915 568.298 108.168C568.298 100.056 571.124 94.0859 576.775 90.2578C582.472 86.3841 591.039 84.2422 602.478 83.832L615.74 83.4219V80.0723C615.74 72.3249 611.775 68.4512 603.845 68.4512C597.739 68.4512 590.561 70.2969 582.312 73.9883L575.408 59.9062C584.203 55.3034 593.956 53.002 604.666 53.002C614.92 53.002 622.781 55.235 628.25 59.7012C633.718 64.1673 636.453 70.9577 636.453 80.0723V131H621.892ZM615.74 95.5898L607.673 95.8633C601.612 96.0456 597.101 97.1393 594.138 99.1445C591.176 101.15 589.695 104.203 589.695 108.305C589.695 114.184 593.067 117.123 599.812 117.123C604.643 117.123 608.494 115.733 611.365 112.953C614.282 110.173 615.74 106.482 615.74 101.879V95.5898Z" fill="#005F95"/>
<path d="M203.889 171.168H215.988C221.672 171.168 225.783 172.018 228.322 173.717C230.861 175.416 232.131 178.102 232.131 181.773C232.131 184.312 231.418 186.412 229.992 188.072C228.586 189.713 226.525 190.777 223.811 191.266V191.559C230.314 192.672 233.566 196.09 233.566 201.812C233.566 205.641 232.268 208.629 229.67 210.777C227.092 212.926 223.479 214 218.83 214H203.889V171.168ZM208.869 189.508H217.072C220.588 189.508 223.117 188.961 224.66 187.867C226.203 186.754 226.975 184.889 226.975 182.271C226.975 179.869 226.115 178.141 224.396 177.086C222.678 176.012 219.943 175.475 216.193 175.475H208.869V189.508ZM208.869 193.727V209.752H217.805C221.262 209.752 223.859 209.088 225.598 207.76C227.355 206.412 228.234 204.312 228.234 201.461C228.234 198.805 227.336 196.852 225.539 195.602C223.762 194.352 221.047 193.727 217.395 193.727H208.869ZM251.433 181.891V202.721C251.433 205.338 252.029 207.291 253.22 208.58C254.411 209.869 256.277 210.514 258.816 210.514C262.175 210.514 264.626 209.596 266.169 207.76C267.732 205.924 268.513 202.926 268.513 198.766V181.891H273.376V214H269.362L268.659 209.693H268.396C267.4 211.275 266.013 212.486 264.236 213.326C262.478 214.166 260.466 214.586 258.2 214.586C254.294 214.586 251.364 213.658 249.411 211.803C247.478 209.947 246.511 206.979 246.511 202.896V181.891H251.433ZM309.231 205.24C309.231 208.229 308.118 210.533 305.891 212.154C303.664 213.775 300.539 214.586 296.516 214.586C292.258 214.586 288.938 213.912 286.555 212.564V208.053C288.098 208.834 289.748 209.449 291.506 209.898C293.284 210.348 294.993 210.572 296.633 210.572C299.172 210.572 301.125 210.172 302.493 209.371C303.86 208.551 304.543 207.311 304.543 205.65C304.543 204.4 303.996 203.336 302.903 202.457C301.829 201.559 299.719 200.504 296.575 199.293C293.586 198.18 291.457 197.213 290.188 196.393C288.938 195.553 288 194.605 287.375 193.551C286.77 192.496 286.467 191.236 286.467 189.771C286.467 187.154 287.532 185.094 289.661 183.59C291.789 182.066 294.709 181.305 298.42 181.305C301.877 181.305 305.256 182.008 308.557 183.414L306.829 187.369C303.606 186.041 300.686 185.377 298.069 185.377C295.764 185.377 294.026 185.738 292.854 186.461C291.682 187.184 291.096 188.18 291.096 189.449C291.096 190.309 291.311 191.041 291.741 191.646C292.19 192.252 292.903 192.828 293.879 193.375C294.856 193.922 296.731 194.713 299.504 195.748C303.313 197.135 305.881 198.531 307.209 199.938C308.557 201.344 309.231 203.111 309.231 205.24ZM326.834 214H321.97V181.891H326.834V214ZM321.56 173.189C321.56 172.076 321.834 171.266 322.38 170.758C322.927 170.23 323.611 169.967 324.431 169.967C325.213 169.967 325.886 170.23 326.453 170.758C327.019 171.285 327.302 172.096 327.302 173.189C327.302 174.283 327.019 175.104 326.453 175.65C325.886 176.178 325.213 176.441 324.431 176.441C323.611 176.441 322.927 176.178 322.38 175.65C321.834 175.104 321.56 174.283 321.56 173.189ZM363.919 214V193.229C363.919 190.611 363.323 188.658 362.132 187.369C360.94 186.08 359.075 185.436 356.536 185.436C353.177 185.436 350.716 186.344 349.153 188.16C347.591 189.977 346.809 192.975 346.809 197.154V214H341.946V181.891H345.901L346.692 186.285H346.927C347.923 184.703 349.319 183.482 351.116 182.623C352.913 181.744 354.915 181.305 357.122 181.305C360.989 181.305 363.899 182.242 365.852 184.117C367.805 185.973 368.782 188.951 368.782 193.053V214H363.919ZM397.166 214.586C392.42 214.586 388.67 213.141 385.916 210.25C383.182 207.359 381.814 203.346 381.814 198.209C381.814 193.033 383.084 188.922 385.623 185.875C388.182 182.828 391.609 181.305 395.906 181.305C399.93 181.305 403.113 182.633 405.457 185.289C407.801 187.926 408.973 191.412 408.973 195.748V198.824H386.854C386.951 202.594 387.898 205.455 389.695 207.408C391.512 209.361 394.061 210.338 397.342 210.338C400.799 210.338 404.217 209.615 407.596 208.17V212.506C405.877 213.248 404.246 213.775 402.703 214.088C401.18 214.42 399.334 214.586 397.166 214.586ZM395.848 185.377C393.27 185.377 391.209 186.217 389.666 187.896C388.143 189.576 387.244 191.9 386.971 194.869H403.758C403.758 191.803 403.074 189.459 401.707 187.838C400.34 186.197 398.387 185.377 395.848 185.377ZM442.806 205.24C442.806 208.229 441.693 210.533 439.466 212.154C437.239 213.775 434.114 214.586 430.091 214.586C425.833 214.586 422.513 213.912 420.13 212.564V208.053C421.673 208.834 423.323 209.449 425.081 209.898C426.859 210.348 428.568 210.572 430.208 210.572C432.747 210.572 434.7 210.172 436.068 209.371C437.435 208.551 438.118 207.311 438.118 205.65C438.118 204.4 437.571 203.336 436.478 202.457C435.404 201.559 433.294 200.504 430.15 199.293C427.161 198.18 425.032 197.213 423.763 196.393C422.513 195.553 421.575 194.605 420.95 193.551C420.345 192.496 420.042 191.236 420.042 189.771C420.042 187.154 421.107 185.094 423.236 183.59C425.364 182.066 428.284 181.305 431.995 181.305C435.452 181.305 438.831 182.008 442.132 183.414L440.404 187.369C437.181 186.041 434.261 185.377 431.644 185.377C429.339 185.377 427.601 185.738 426.429 186.461C425.257 187.184 424.671 188.18 424.671 189.449C424.671 190.309 424.886 191.041 425.316 191.646C425.765 192.252 426.478 192.828 427.454 193.375C428.431 193.922 430.306 194.713 433.079 195.748C436.888 197.135 439.456 198.531 440.784 199.938C442.132 201.344 442.806 203.111 442.806 205.24ZM476.258 205.24C476.258 208.229 475.145 210.533 472.918 212.154C470.692 213.775 467.567 214.586 463.543 214.586C459.286 214.586 455.965 213.912 453.582 212.564V208.053C455.125 208.834 456.776 209.449 458.534 209.898C460.311 210.348 462.02 210.572 463.661 210.572C466.2 210.572 468.153 210.172 469.52 209.371C470.887 208.551 471.571 207.311 471.571 205.65C471.571 204.4 471.024 203.336 469.93 202.457C468.856 201.559 466.746 200.504 463.602 199.293C460.614 198.18 458.485 197.213 457.215 196.393C455.965 195.553 455.028 194.605 454.403 193.551C453.797 192.496 453.495 191.236 453.495 189.771C453.495 187.154 454.559 185.094 456.688 183.59C458.817 182.066 461.737 181.305 465.448 181.305C468.905 181.305 472.284 182.008 475.584 183.414L473.856 187.369C470.633 186.041 467.713 185.377 465.096 185.377C462.791 185.377 461.053 185.738 459.881 186.461C458.709 187.184 458.123 188.18 458.123 189.449C458.123 190.309 458.338 191.041 458.768 191.646C459.217 192.252 459.93 192.828 460.907 193.375C461.883 193.922 463.758 194.713 466.532 195.748C470.34 197.135 472.909 198.531 474.237 199.938C475.584 201.344 476.258 203.111 476.258 205.24ZM530.096 205.24C530.096 208.229 528.983 210.533 526.757 212.154C524.53 213.775 521.405 214.586 517.382 214.586C513.124 214.586 509.804 213.912 507.421 212.564V208.053C508.964 208.834 510.614 209.449 512.372 209.898C514.149 210.348 515.858 210.572 517.499 210.572C520.038 210.572 521.991 210.172 523.358 209.371C524.725 208.551 525.409 207.311 525.409 205.65C525.409 204.4 524.862 203.336 523.768 202.457C522.694 201.559 520.585 200.504 517.44 199.293C514.452 198.18 512.323 197.213 511.054 196.393C509.804 195.553 508.866 194.605 508.241 193.551C507.636 192.496 507.333 191.236 507.333 189.771C507.333 187.154 508.397 185.094 510.526 183.59C512.655 182.066 515.575 181.305 519.286 181.305C522.743 181.305 526.122 182.008 529.423 183.414L527.694 187.369C524.471 186.041 521.552 185.377 518.934 185.377C516.63 185.377 514.891 185.738 513.72 186.461C512.548 187.184 511.962 188.18 511.962 189.449C511.962 190.309 512.177 191.041 512.606 191.646C513.055 192.252 513.768 192.828 514.745 193.375C515.721 193.922 517.596 194.713 520.37 195.748C524.179 197.135 526.747 198.531 528.075 199.938C529.423 201.344 530.096 203.111 530.096 205.24ZM547.406 181.891V202.721C547.406 205.338 548.002 207.291 549.193 208.58C550.385 209.869 552.25 210.514 554.789 210.514C558.148 210.514 560.6 209.596 562.143 207.76C563.705 205.924 564.486 202.926 564.486 198.766V181.891H569.35V214H565.336L564.633 209.693H564.369C563.373 211.275 561.986 212.486 560.209 213.326C558.451 214.166 556.439 214.586 554.174 214.586C550.268 214.586 547.338 213.658 545.385 211.803C543.451 209.947 542.484 206.979 542.484 202.896V181.891H547.406ZM597.323 214.586C592.675 214.586 589.071 213.16 586.513 210.309C583.974 207.438 582.704 203.385 582.704 198.15C582.704 192.779 583.993 188.629 586.571 185.699C589.169 182.77 592.861 181.305 597.646 181.305C599.189 181.305 600.732 181.471 602.275 181.803C603.818 182.135 605.029 182.525 605.907 182.975L604.413 187.105C603.339 186.676 602.167 186.324 600.898 186.051C599.628 185.758 598.505 185.611 597.529 185.611C591.005 185.611 587.743 189.771 587.743 198.092C587.743 202.037 588.534 205.064 590.116 207.174C591.718 209.283 594.081 210.338 597.206 210.338C599.882 210.338 602.626 209.762 605.439 208.609V212.916C603.29 214.029 600.585 214.586 597.323 214.586ZM630.717 214.586C626.069 214.586 622.465 213.16 619.907 210.309C617.368 207.438 616.098 203.385 616.098 198.15C616.098 192.779 617.387 188.629 619.965 185.699C622.563 182.77 626.254 181.305 631.039 181.305C632.582 181.305 634.125 181.471 635.668 181.803C637.211 182.135 638.422 182.525 639.301 182.975L637.807 187.105C636.733 186.676 635.561 186.324 634.291 186.051C633.022 185.758 631.899 185.611 630.922 185.611C624.399 185.611 621.137 189.771 621.137 198.092C621.137 202.037 621.928 205.064 623.51 207.174C625.112 209.283 627.475 210.338 630.6 210.338C633.276 210.338 636.02 209.762 638.832 208.609V212.916C636.684 214.029 633.979 214.586 630.717 214.586ZM664.843 214.586C660.097 214.586 656.347 213.141 653.593 210.25C650.859 207.359 649.492 203.346 649.492 198.209C649.492 193.033 650.761 188.922 653.3 185.875C655.859 182.828 659.287 181.305 663.584 181.305C667.607 181.305 670.791 182.633 673.134 185.289C675.478 187.926 676.65 191.412 676.65 195.748V198.824H654.531C654.629 202.594 655.576 205.455 657.373 207.408C659.189 209.361 661.738 210.338 665.019 210.338C668.476 210.338 671.894 209.615 675.273 208.17V212.506C673.554 213.248 671.923 213.775 670.38 214.088C668.857 214.42 667.011 214.586 664.843 214.586ZM663.525 185.377C660.947 185.377 658.886 186.217 657.343 187.896C655.82 189.576 654.921 191.9 654.648 194.869H671.435C671.435 191.803 670.752 189.459 669.384 187.838C668.017 186.197 666.064 185.377 663.525 185.377ZM710.483 205.24C710.483 208.229 709.37 210.533 707.143 212.154C704.917 213.775 701.792 214.586 697.768 214.586C693.511 214.586 690.19 213.912 687.807 212.564V208.053C689.35 208.834 691.001 209.449 692.759 209.898C694.536 210.348 696.245 210.572 697.886 210.572C700.425 210.572 702.378 210.172 703.745 209.371C705.112 208.551 705.796 207.311 705.796 205.65C705.796 204.4 705.249 203.336 704.155 202.457C703.081 201.559 700.971 200.504 697.827 199.293C694.839 198.18 692.71 197.213 691.44 196.393C690.19 195.553 689.253 194.605 688.628 193.551C688.022 192.496 687.72 191.236 687.72 189.771C687.72 187.154 688.784 185.094 690.913 183.59C693.042 182.066 695.962 181.305 699.673 181.305C703.13 181.305 706.509 182.008 709.809 183.414L708.081 187.369C704.858 186.041 701.938 185.377 699.321 185.377C697.016 185.377 695.278 185.738 694.106 186.461C692.934 187.184 692.348 188.18 692.348 189.449C692.348 190.309 692.563 191.041 692.993 191.646C693.442 192.252 694.155 192.828 695.132 193.375C696.108 193.922 697.983 194.713 700.757 195.748C704.565 197.135 707.134 198.531 708.462 199.938C709.809 201.344 710.483 203.111 710.483 205.24ZM743.936 205.24C743.936 208.229 742.822 210.533 740.596 212.154C738.369 213.775 735.244 214.586 731.221 214.586C726.963 214.586 723.643 213.912 721.26 212.564V208.053C722.803 208.834 724.453 209.449 726.211 209.898C727.988 210.348 729.697 210.572 731.338 210.572C733.877 210.572 735.83 210.172 737.197 209.371C738.564 208.551 739.248 207.311 739.248 205.65C739.248 204.4 738.701 203.336 737.607 202.457C736.533 201.559 734.424 200.504 731.279 199.293C728.291 198.18 726.162 197.213 724.893 196.393C723.643 195.553 722.705 194.605 722.08 193.551C721.475 192.496 721.172 191.236 721.172 189.771C721.172 187.154 722.236 185.094 724.365 183.59C726.494 182.066 729.414 181.305 733.125 181.305C736.582 181.305 739.961 182.008 743.262 183.414L741.533 187.369C738.311 186.041 735.391 185.377 732.773 185.377C730.469 185.377 728.73 185.738 727.559 186.461C726.387 187.184 725.801 188.18 725.801 189.449C725.801 190.309 726.016 191.041 726.445 191.646C726.895 192.252 727.607 192.828 728.584 193.375C729.561 193.922 731.436 194.713 734.209 195.748C738.018 197.135 740.586 198.531 741.914 199.938C743.262 201.344 743.936 203.111 743.936 205.24Z" fill="#010101"/>
<path d="M676.043 32H657.953V0.589844H676.043V6.04688H664.613V12.9434H675.248V18.4004H664.613V26.5H676.043V32ZM692.797 14.5332H694.946C697.051 14.5332 698.605 14.1823 699.608 13.4805C700.61 12.7786 701.112 11.6758 701.112 10.1719C701.112 8.68229 700.596 7.6224 699.565 6.99219C698.548 6.36198 696.965 6.04688 694.817 6.04688H692.797V14.5332ZM692.797 19.9473V32H686.137V0.589844H695.29C699.558 0.589844 702.716 1.37044 704.764 2.93164C706.812 4.47852 707.836 6.83464 707.836 10C707.836 11.8477 707.328 13.4948 706.311 14.9414C705.294 16.3737 703.855 17.498 701.993 18.3145C706.719 25.3757 709.799 29.9375 711.231 32H703.84L696.342 19.9473H692.797ZM725.364 15.3711H727.556C729.604 15.3711 731.136 14.9701 732.153 14.168C733.17 13.3516 733.679 12.1699 733.679 10.623C733.679 9.06185 733.249 7.90885 732.39 7.16406C731.545 6.41927 730.213 6.04688 728.394 6.04688H725.364V15.3711ZM740.403 10.3867C740.403 13.7669 739.343 16.3522 737.224 18.1426C735.118 19.9329 732.117 20.8281 728.222 20.8281H725.364V32H718.704V0.589844H728.737C732.547 0.589844 735.44 1.41341 737.417 3.06055C739.408 4.69336 740.403 7.13542 740.403 10.3867Z" fill="#950000"/>
</svg>
